<svg version="1.0" xmlns="http://www.w3.org/2000/svg" viewBox="0 0 300.000000 300.000000" preserveAspectRatio="xMidYMid meet">
                <metadata>
                    Created by potrace 1.11, written by Peter Selinger 2001-2013
                </metadata>
                <g transform="translate(0.000000,300.000000) scale(0.100000,-0.100000)" fill="#fff" stroke="none">
                    <path d="M1465 2824 c-119 -51 -154 -65 -425 -174 -151 -61 -284 -115 -295
-120 -11 -5 -164 -67 -340 -138 -176 -70 -329 -133 -339 -139 -21 -12 -40 -2
209 -115 61 -28 148 -68 193 -89 46 -22 88 -39 93 -39 17 0 9 -21 -30 -78 -76
-112 -160 -311 -177 -420 -3 -19 -8 -44 -11 -56 -3 -11 -7 -238 -9 -504 l-3
-482 67 -1 c37 -1 120 -2 185 -3 l119 -2 56 -45 c218 -174 436 -256 702 -264
299 -9 552 75 777 257 l63 52 113 2 c61 1 144 3 182 3 l71 1 -2 453 c-1 248
-4 472 -8 497 -18 114 -22 133 -47 209 -40 121 -128 289 -180 347 l-19 21 112
56 c62 30 120 57 128 59 12 3 14 -30 16 -217 1 -121 2 -225 3 -230 0 -6 26
-11 59 -10 l57 0 5 255 5 254 78 38 c43 21 75 43 72 48 -3 6 -10 10 -15 10 -5
0 -34 11 -64 25 -30 14 -57 25 -60 25 -3 0 -29 11 -58 24 -96 44 -1193 508
-1208 512 -8 2 -42 -8 -75 -22z m-544 -972 c95 -44 194 -88 219 -99 25 -11 83
-37 130 -58 47 -20 117 -52 156 -70 109 -50 99 -51 235 13 68 33 149 71 179
85 53 24 151 70 349 164 l95 45 18 -24 c10 -13 36 -52 57 -88 206 -346 191
-760 -39 -1095 -48 -70 -174 -193 -249 -244 -350 -237 -803 -232 -1146 14
-405 291 -532 843 -295 1283 41 76 96 152 109 152 4 0 86 -35 182 -78z"></path>
                    <path d="M1014 1490 c-29 -11 -47 -60 -35 -91 11 -31 28 -44 64 -53 23 -5 34
-1 57 23 37 36 39 73 5 106 -25 26 -54 30 -91 15z"></path>
                    <path d="M1892 1480 c-12 -12 -22 -26 -23 -33 0 -7 -2 -20 -4 -29 -4 -22 22
-57 51 -68 28 -11 71 2 90 28 53 69 -50 161 -114 102z"></path>
                    <path d="M1415 1244 c-55 -36 -101 -69 -103 -74 -2 -4 44 -102 102 -217 l104
-208 101 208 c56 115 101 212 101 215 0 6 -183 133 -200 139 -3 1 -50 -27
-105 -63z"></path>
                </g>
            </svg>
