<?xml version="1.0" encoding="utf-8"?>
<!-- Generator: Adobe Illustrator 21.0.0, SVG Export Plug-In . SVG Version: 6.00 Build 0)  -->
<svg version="1.1" id="Layer_1" xmlns="http://www.w3.org/2000/svg" xmlns:xlink="http://www.w3.org/1999/xlink" x="0px" y="0px"
	 viewBox="0 0 144 144" style="enable-background:new 0 0 144 144;" xml:space="preserve">
<style type="text/css">
	.st0{fill:#F8921C;}
	.st1{fill:#E09031;}
	.st2{clip-path:url(#SVGID_3_);}
	.st3{clip-path:url(#SVGID_4_);fill:#FFFFFF;}
	.st4{clip-path:url(#SVGID_7_);}
	.st5{clip-path:url(#SVGID_8_);fill:#F5901B;}
	.st6{fill:#B40F55;}
	.st7{fill:#F41D78;}
	.st8{fill:none;stroke:#FFFFFF;stroke-width:5;stroke-miterlimit:10;}
	.st9{fill:none;stroke:#FFFFFF;stroke-width:3;stroke-linecap:round;stroke-linejoin:round;stroke-miterlimit:10;}
</style>
<g id="XMLID_2_">
	<g>
		<polygon class="st6" points="108.2,11.4 141,72.3 110.8,72.3 92.9,36.3 		"/>
		<polygon class="st7" points="141,72.3 108.1,132.6 92.9,103.8 110.8,72.3 		"/>
		<polygon class="st7" points="92.9,36.3 110.8,72.3 92.9,103.8 54.3,103.8 33.7,72.3 51.1,36.3 		"/>
		<polygon class="st7" points="108.2,11.4 92.9,36.3 51.1,36.3 36.8,11.4 		"/>
		<polygon class="st6" points="92.9,103.8 108.1,132.6 38.9,132.6 54.3,103.8 		"/>
		<polygon class="st7" points="33.7,72.3 54.3,103.8 38.9,132.6 3.5,72.1 		"/>
		<polygon class="st6" points="36.8,11.4 51.1,36.3 33.7,72.3 3.5,72.1 		"/>
	</g>
	<g>
		<polygon class="st8" points="36.8,11.4 3.5,72.1 38.9,132.6 108.1,132.6 141,72.3 108.2,11.4 		"/>
		<polyline class="st8" points="36.8,11.4 51.1,36.3 92.9,36.3 108.2,11.4 		"/>
		<polyline class="st8" points="141,72.3 110.8,72.3 92.9,36.3 		"/>
		<polyline class="st8" points="108.1,132.6 92.9,103.8 54.3,103.8 38.9,132.6 		"/>
		<polyline class="st8" points="3.5,72.1 33.7,72.3 51.1,36.3 		"/>
		<line class="st8" x1="54.3" y1="103.8" x2="33.7" y2="72.3"/>
		<line class="st8" x1="92.9" y1="103.8" x2="110.8" y2="72.3"/>
	</g>
</g>
<line class="st9" x1="65.2" y1="48.9" x2="54.2" y2="67.5"/>
<line class="st9" x1="74.1" y1="49.7" x2="59.7" y2="74"/>
</svg>
